# xmcd
#
# Track frame offsets:
# 150
# 43092
# 59670
# 81702
# 99441
# 116410
# 144555
# 173789
# 191374
# 205538
# 226489
# 245162
# 269035
# 288122
# 300804
#
# Disc length: 4190 seconds
#
# Revision: 0
# Processed by: cddbd v1.5.1PL0 Copyright (c) Steve Scherf et al.
# Submitted via: Coin'sHifi 0.9 coinshifi@hotmail.fr
#
DISCID=d7105c0f
DTITLE=Various Artist - Disco Funk - vol 1 [CD1]
DYEAR=2002
DGENRE=blues
TTITLE0=Boys Town Gang - Can't Take My Eyes Off You
TTITLE1=Sylvester - You Make Me Feel
TTITLE2=The Whispers - And The Beat Goes On
TTITLE3=The Sugarhill Gang - Rapper's Delight
TTITLE4=Jocelyn Brown - Somebody Else's Guy
TTITLE5=Shalamar - Make That Move
TTITLE6=Fat Larry's Band - Act Like You Know
TTITLE7=Stretch - Why Did You Do It
TTITLE8=Lydia Murdock - Superstar
TTITLE9=The Strikers - Body Music
TTITLE10=Oliver Cheatham - Get Down Saturday Night
TTITLE11=Johnny Guitar Watson - Booty Ooty
TTITLE12=Traks - Long Train Runnin'
TTITLE13=Kool and The Gang - Jump Up The Rythm and Ride
TTITLE14=Debarge - Take It To The Top
EXTD=
EXTT0=
EXTT1=
EXTT2=
EXTT3=
EXTT4=
EXTT5=
EXTT6=
EXTT7=
EXTT8=
EXTT9=
EXTT10=
EXTT11=
EXTT12=
EXTT13=
EXTT14=
PLAYORDER=
